# xmcd
#
# Track frame offsets:
#	150
#	21995
#	40462
#	55687
#	76190
#	95622
#	110270
#	123630
#	144277
#	160275
#	177742
#
# Disc length: 2651 seconds
#
# Revision: 1
# Processed by: cddbd v1.4PL0 Copyright (c) Steve Scherf et al.
# Submitted via: EasyCDDAExtractor 5.0.6
#
DISCID=920a590b
DTITLE=Giorgos Dimitriadis - Xipna! Ftasame
DYEAR=2000
DGENRE=Greek
TTITLE0=Xipna! Ftasame
TTITLE1=1h mera tou aiona
TTITLE2=Asteria makrina
TTITLE3=Magiko xali
TTITLE4=Portes Kleistes
TTITLE5=To paixnidi me to xrono
TTITLE6=To mono psema (pou den tha arnitho)
TTITLE7=To aeraki tou Mai
TTITLE8=Poia kardia
TTITLE9=Adeia imera
TTITLE10=Ton kosmo theloume xana
EXTD=
EXTT0=
EXTT1=
EXTT2=
EXTT3=
EXTT4=
EXTT5=
EXTT6=
EXTT7=
EXTT8=
EXTT9=
EXTT10=
PLAYORDER=
